<mxfile host="Electron" agent="Mozilla/5.0 (Windows NT 10.0; Win64; x64) AppleWebKit/537.36 (KHTML, like Gecko) draw.io/24.7.17 Chrome/128.0.6613.36 Electron/32.0.1 Safari/537.36" version="24.7.17">
  <diagram name="Página-1" id="FXrEpwq64N0sqPLMW4XI">
    <mxGraphModel dx="4732" dy="1298" grid="1" gridSize="10" guides="1" tooltips="1" connect="1" arrows="1" fold="1" page="1" pageScale="1" pageWidth="1100" pageHeight="850" math="0" shadow="0">
      <root>
        <mxCell id="0" />
        <mxCell id="1" parent="0" />
        <mxCell id="Sk72uiIsyQAN5pC7uQmF-3" style="edgeStyle=orthogonalEdgeStyle;rounded=0;orthogonalLoop=1;jettySize=auto;html=1;entryX=0.5;entryY=0;entryDx=0;entryDy=0;endArrow=open;endFill=0;" parent="1" source="Sk72uiIsyQAN5pC7uQmF-1" target="Sk72uiIsyQAN5pC7uQmF-2" edge="1">
          <mxGeometry relative="1" as="geometry" />
        </mxCell>
        <mxCell id="Sk72uiIsyQAN5pC7uQmF-1" value="" style="ellipse;whiteSpace=wrap;html=1;aspect=fixed;fillColor=#000000;" parent="1" vertex="1">
          <mxGeometry x="566.25" y="120" width="30" height="30" as="geometry" />
        </mxCell>
        <mxCell id="Sk72uiIsyQAN5pC7uQmF-5" style="edgeStyle=orthogonalEdgeStyle;rounded=0;orthogonalLoop=1;jettySize=auto;html=1;entryX=0.5;entryY=0;entryDx=0;entryDy=0;endArrow=open;endFill=0;" parent="1" source="Sk72uiIsyQAN5pC7uQmF-2" target="Sk72uiIsyQAN5pC7uQmF-4" edge="1">
          <mxGeometry relative="1" as="geometry" />
        </mxCell>
        <mxCell id="Sk72uiIsyQAN5pC7uQmF-2" value="Ordem" style="rounded=1;whiteSpace=wrap;html=1;" parent="1" vertex="1">
          <mxGeometry x="538.75" y="190" width="85" height="40" as="geometry" />
        </mxCell>
        <mxCell id="IWyUqhcyfYSEkEnzNz_I-221" style="edgeStyle=orthogonalEdgeStyle;rounded=0;orthogonalLoop=1;jettySize=auto;html=1;entryX=0;entryY=0.5;entryDx=0;entryDy=0;endArrow=open;endFill=0;" edge="1" parent="1" source="Sk72uiIsyQAN5pC7uQmF-4" target="IWyUqhcyfYSEkEnzNz_I-220">
          <mxGeometry relative="1" as="geometry" />
        </mxCell>
        <mxCell id="Sk72uiIsyQAN5pC7uQmF-4" value="&lt;div style=&quot;font-size: 9px;&quot;&gt;Tipo de ordem&lt;/div&gt;" style="rhombus;whiteSpace=wrap;html=1;" parent="1" vertex="1">
          <mxGeometry x="542.5" y="257.5" width="77.5" height="55" as="geometry" />
        </mxCell>
        <mxCell id="IWyUqhcyfYSEkEnzNz_I-4" style="edgeStyle=orthogonalEdgeStyle;rounded=0;orthogonalLoop=1;jettySize=auto;html=1;entryX=0.5;entryY=0;entryDx=0;entryDy=0;endArrow=open;endFill=0;" edge="1" parent="1" source="IWyUqhcyfYSEkEnzNz_I-12" target="IWyUqhcyfYSEkEnzNz_I-3">
          <mxGeometry relative="1" as="geometry" />
        </mxCell>
        <mxCell id="Sk72uiIsyQAN5pC7uQmF-6" value="Parâmetros da&lt;div style=&quot;font-size: 10px;&quot;&gt;ordem de&amp;nbsp;&lt;/div&gt;&lt;div style=&quot;font-size: 10px;&quot;&gt;compra&lt;/div&gt;" style="rounded=1;whiteSpace=wrap;html=1;fontSize=10;" parent="1" vertex="1">
          <mxGeometry x="-929" y="264.5" width="85" height="40" as="geometry" />
        </mxCell>
        <mxCell id="Sk72uiIsyQAN5pC7uQmF-13" style="edgeStyle=orthogonalEdgeStyle;rounded=0;orthogonalLoop=1;jettySize=auto;html=1;entryX=0.5;entryY=0;entryDx=0;entryDy=0;endArrow=open;endFill=0;" parent="1" source="Sk72uiIsyQAN5pC7uQmF-10" target="Sk72uiIsyQAN5pC7uQmF-12" edge="1">
          <mxGeometry relative="1" as="geometry">
            <mxPoint x="231.75000000000045" y="1450" as="targetPoint" />
          </mxGeometry>
        </mxCell>
        <mxCell id="Sk72uiIsyQAN5pC7uQmF-10" value="" style="rounded=0;whiteSpace=wrap;html=1;fillColor=#000000;" parent="1" vertex="1">
          <mxGeometry x="191.75" y="1410" width="80" height="10" as="geometry" />
        </mxCell>
        <mxCell id="Sk72uiIsyQAN5pC7uQmF-12" value="" style="ellipse;html=1;shape=endState;fillColor=#000000;strokeColor=#000000;" parent="1" vertex="1">
          <mxGeometry x="216.75" y="1460" width="30" height="30" as="geometry" />
        </mxCell>
        <mxCell id="Sk72uiIsyQAN5pC7uQmF-16" value="&lt;div&gt;&lt;font style=&quot;font-size: 11px;&quot;&gt;[Venda]&lt;/font&gt;&lt;/div&gt;" style="text;html=1;align=center;verticalAlign=middle;resizable=0;points=[];autosize=1;strokeColor=none;fillColor=none;" parent="1" vertex="1">
          <mxGeometry x="640" y="260.5" width="60" height="30" as="geometry" />
        </mxCell>
        <mxCell id="IWyUqhcyfYSEkEnzNz_I-6" style="edgeStyle=orthogonalEdgeStyle;rounded=0;orthogonalLoop=1;jettySize=auto;html=1;entryX=1;entryY=0.5;entryDx=0;entryDy=0;endArrow=open;endFill=0;" edge="1" parent="1" source="IWyUqhcyfYSEkEnzNz_I-3" target="IWyUqhcyfYSEkEnzNz_I-5">
          <mxGeometry relative="1" as="geometry" />
        </mxCell>
        <mxCell id="IWyUqhcyfYSEkEnzNz_I-10" style="edgeStyle=orthogonalEdgeStyle;rounded=0;orthogonalLoop=1;jettySize=auto;html=1;entryX=0.5;entryY=0;entryDx=0;entryDy=0;endArrow=open;endFill=0;" edge="1" parent="1" source="IWyUqhcyfYSEkEnzNz_I-228" target="IWyUqhcyfYSEkEnzNz_I-9">
          <mxGeometry relative="1" as="geometry" />
        </mxCell>
        <mxCell id="IWyUqhcyfYSEkEnzNz_I-3" value="APIB3" style="rhombus;whiteSpace=wrap;html=1;" vertex="1" parent="1">
          <mxGeometry x="-925.25" y="423.5" width="77.5" height="55" as="geometry" />
        </mxCell>
        <mxCell id="IWyUqhcyfYSEkEnzNz_I-86" style="edgeStyle=orthogonalEdgeStyle;rounded=0;orthogonalLoop=1;jettySize=auto;html=1;entryX=0.5;entryY=0;entryDx=0;entryDy=0;endArrow=open;endFill=0;" edge="1" parent="1" source="IWyUqhcyfYSEkEnzNz_I-5" target="Sk72uiIsyQAN5pC7uQmF-10">
          <mxGeometry relative="1" as="geometry">
            <Array as="points">
              <mxPoint x="-1072" y="1109" />
              <mxPoint x="-513" y="1109" />
              <mxPoint x="232" y="1110" />
            </Array>
          </mxGeometry>
        </mxCell>
        <mxCell id="IWyUqhcyfYSEkEnzNz_I-5" value="Indisponibilidade&lt;div&gt;temporária da&amp;nbsp;&lt;/div&gt;&lt;div&gt;simulação&lt;/div&gt;" style="rounded=1;whiteSpace=wrap;html=1;fontSize=10;" vertex="1" parent="1">
          <mxGeometry x="-1114" y="431" width="85" height="40" as="geometry" />
        </mxCell>
        <mxCell id="IWyUqhcyfYSEkEnzNz_I-7" value="[Não disponível]" style="text;html=1;align=center;verticalAlign=middle;resizable=0;points=[];autosize=1;strokeColor=none;fillColor=none;" vertex="1" parent="1">
          <mxGeometry x="-1029" y="427.5" width="110" height="30" as="geometry" />
        </mxCell>
        <mxCell id="IWyUqhcyfYSEkEnzNz_I-37" style="edgeStyle=orthogonalEdgeStyle;rounded=0;orthogonalLoop=1;jettySize=auto;html=1;entryX=0.5;entryY=0;entryDx=0;entryDy=0;endArrow=open;endFill=0;" edge="1" parent="1" source="IWyUqhcyfYSEkEnzNz_I-9" target="IWyUqhcyfYSEkEnzNz_I-36">
          <mxGeometry relative="1" as="geometry" />
        </mxCell>
        <mxCell id="IWyUqhcyfYSEkEnzNz_I-9" value="Valor estimado" style="rounded=1;whiteSpace=wrap;html=1;fontSize=10;" vertex="1" parent="1">
          <mxGeometry x="-929" y="581" width="85" height="40" as="geometry" />
        </mxCell>
        <mxCell id="IWyUqhcyfYSEkEnzNz_I-11" value="[Disponível]" style="text;html=1;align=center;verticalAlign=middle;resizable=0;points=[];autosize=1;strokeColor=none;fillColor=none;" vertex="1" parent="1">
          <mxGeometry x="-897" y="478.5" width="90" height="30" as="geometry" />
        </mxCell>
        <mxCell id="IWyUqhcyfYSEkEnzNz_I-13" value="" style="edgeStyle=orthogonalEdgeStyle;rounded=0;orthogonalLoop=1;jettySize=auto;html=1;entryX=0.5;entryY=0;entryDx=0;entryDy=0;endArrow=open;endFill=0;" edge="1" parent="1" source="Sk72uiIsyQAN5pC7uQmF-6" target="IWyUqhcyfYSEkEnzNz_I-12">
          <mxGeometry relative="1" as="geometry">
            <mxPoint x="-886" y="303.5" as="sourcePoint" />
            <mxPoint x="-886" y="458.5" as="targetPoint" />
          </mxGeometry>
        </mxCell>
        <mxCell id="IWyUqhcyfYSEkEnzNz_I-15" style="edgeStyle=orthogonalEdgeStyle;rounded=0;orthogonalLoop=1;jettySize=auto;html=1;entryX=1;entryY=0.5;entryDx=0;entryDy=0;endArrow=open;endFill=0;" edge="1" parent="1" source="IWyUqhcyfYSEkEnzNz_I-12" target="IWyUqhcyfYSEkEnzNz_I-14">
          <mxGeometry relative="1" as="geometry" />
        </mxCell>
        <mxCell id="IWyUqhcyfYSEkEnzNz_I-12" value="Dados da&amp;nbsp;&lt;div style=&quot;font-size: 10px;&quot;&gt;ordem&lt;/div&gt;" style="rhombus;whiteSpace=wrap;html=1;fontSize=10;" vertex="1" parent="1">
          <mxGeometry x="-925.25" y="328.5" width="77.5" height="55" as="geometry" />
        </mxCell>
        <mxCell id="IWyUqhcyfYSEkEnzNz_I-18" style="edgeStyle=orthogonalEdgeStyle;rounded=0;orthogonalLoop=1;jettySize=auto;html=1;entryX=0;entryY=0.5;entryDx=0;entryDy=0;endArrow=open;endFill=0;" edge="1" parent="1">
          <mxGeometry relative="1" as="geometry">
            <mxPoint x="-1071.48" y="337" as="sourcePoint" />
            <mxPoint x="-929" y="285.5" as="targetPoint" />
            <Array as="points">
              <mxPoint x="-1071" y="286" />
              <mxPoint x="-960" y="286" />
            </Array>
          </mxGeometry>
        </mxCell>
        <mxCell id="IWyUqhcyfYSEkEnzNz_I-14" value="Corrigir dados de&amp;nbsp;&lt;div&gt;ordem de compra&lt;/div&gt;" style="rounded=1;whiteSpace=wrap;html=1;fontSize=10;" vertex="1" parent="1">
          <mxGeometry x="-1114" y="336" width="85" height="40" as="geometry" />
        </mxCell>
        <mxCell id="IWyUqhcyfYSEkEnzNz_I-16" value="[Dados inválidos]" style="text;html=1;align=center;verticalAlign=middle;resizable=0;points=[];autosize=1;strokeColor=none;fillColor=none;" vertex="1" parent="1">
          <mxGeometry x="-1029" y="328.5" width="110" height="30" as="geometry" />
        </mxCell>
        <mxCell id="IWyUqhcyfYSEkEnzNz_I-19" value="[Dados válidos]" style="text;html=1;align=center;verticalAlign=middle;resizable=0;points=[];autosize=1;strokeColor=none;fillColor=none;" vertex="1" parent="1">
          <mxGeometry x="-898" y="382.5" width="110" height="30" as="geometry" />
        </mxCell>
        <mxCell id="IWyUqhcyfYSEkEnzNz_I-74" style="edgeStyle=orthogonalEdgeStyle;rounded=0;orthogonalLoop=1;jettySize=auto;html=1;entryX=1;entryY=0.5;entryDx=0;entryDy=0;endArrow=open;endFill=0;" edge="1" parent="1" source="IWyUqhcyfYSEkEnzNz_I-21" target="IWyUqhcyfYSEkEnzNz_I-52">
          <mxGeometry relative="1" as="geometry" />
        </mxCell>
        <mxCell id="IWyUqhcyfYSEkEnzNz_I-76" style="edgeStyle=orthogonalEdgeStyle;rounded=0;orthogonalLoop=1;jettySize=auto;html=1;entryX=0.5;entryY=0;entryDx=0;entryDy=0;endArrow=open;endFill=0;" edge="1" parent="1" source="IWyUqhcyfYSEkEnzNz_I-21" target="IWyUqhcyfYSEkEnzNz_I-40">
          <mxGeometry relative="1" as="geometry" />
        </mxCell>
        <mxCell id="IWyUqhcyfYSEkEnzNz_I-78" style="edgeStyle=orthogonalEdgeStyle;rounded=0;orthogonalLoop=1;jettySize=auto;html=1;entryX=0;entryY=0.5;entryDx=0;entryDy=0;endArrow=open;endFill=0;" edge="1" parent="1" source="IWyUqhcyfYSEkEnzNz_I-21" target="IWyUqhcyfYSEkEnzNz_I-77">
          <mxGeometry relative="1" as="geometry" />
        </mxCell>
        <mxCell id="IWyUqhcyfYSEkEnzNz_I-21" value="Tipo de&amp;nbsp;&lt;div&gt;ação&lt;/div&gt;" style="rhombus;whiteSpace=wrap;html=1;" vertex="1" parent="1">
          <mxGeometry x="-346.24" y="397" width="77.5" height="55" as="geometry" />
        </mxCell>
        <mxCell id="IWyUqhcyfYSEkEnzNz_I-31" style="edgeStyle=orthogonalEdgeStyle;rounded=0;orthogonalLoop=1;jettySize=auto;html=1;entryX=0.5;entryY=0;entryDx=0;entryDy=0;endArrow=open;endFill=0;" edge="1" parent="1" source="IWyUqhcyfYSEkEnzNz_I-67" target="IWyUqhcyfYSEkEnzNz_I-26">
          <mxGeometry relative="1" as="geometry" />
        </mxCell>
        <mxCell id="IWyUqhcyfYSEkEnzNz_I-23" value="Confirmar Ordem&lt;div&gt;de compra&lt;/div&gt;" style="rounded=1;whiteSpace=wrap;html=1;fontSize=10;" vertex="1" parent="1">
          <mxGeometry x="-744" y="478.5" width="85" height="40" as="geometry" />
        </mxCell>
        <mxCell id="IWyUqhcyfYSEkEnzNz_I-25" value="[Efetivar ordem de compra]" style="text;html=1;align=center;verticalAlign=middle;resizable=0;points=[];autosize=1;strokeColor=none;fillColor=none;" vertex="1" parent="1">
          <mxGeometry x="-634" y="401" width="170" height="30" as="geometry" />
        </mxCell>
        <mxCell id="IWyUqhcyfYSEkEnzNz_I-33" style="edgeStyle=orthogonalEdgeStyle;rounded=0;orthogonalLoop=1;jettySize=auto;html=1;entryX=0.5;entryY=0;entryDx=0;entryDy=0;endArrow=open;endFill=0;" edge="1" parent="1" source="IWyUqhcyfYSEkEnzNz_I-26" target="IWyUqhcyfYSEkEnzNz_I-32">
          <mxGeometry relative="1" as="geometry" />
        </mxCell>
        <mxCell id="IWyUqhcyfYSEkEnzNz_I-26" value="Dados de efetivação" style="rounded=1;whiteSpace=wrap;html=1;fontSize=10;" vertex="1" parent="1">
          <mxGeometry x="-744.5" y="661.5" width="85" height="40" as="geometry" />
        </mxCell>
        <mxCell id="IWyUqhcyfYSEkEnzNz_I-35" style="edgeStyle=orthogonalEdgeStyle;rounded=0;orthogonalLoop=1;jettySize=auto;html=1;entryX=0.5;entryY=0;entryDx=0;entryDy=0;endArrow=open;endFill=0;" edge="1" parent="1" source="IWyUqhcyfYSEkEnzNz_I-32" target="IWyUqhcyfYSEkEnzNz_I-34">
          <mxGeometry relative="1" as="geometry" />
        </mxCell>
        <mxCell id="IWyUqhcyfYSEkEnzNz_I-32" value="Processamento da Ordem de compra" style="rounded=1;whiteSpace=wrap;html=1;fontSize=10;" vertex="1" parent="1">
          <mxGeometry x="-746.5" y="741.5" width="90" height="48" as="geometry" />
        </mxCell>
        <mxCell id="IWyUqhcyfYSEkEnzNz_I-87" style="edgeStyle=orthogonalEdgeStyle;rounded=0;orthogonalLoop=1;jettySize=auto;html=1;entryX=0.5;entryY=0;entryDx=0;entryDy=0;endArrow=open;endFill=0;" edge="1" parent="1" source="IWyUqhcyfYSEkEnzNz_I-34" target="Sk72uiIsyQAN5pC7uQmF-10">
          <mxGeometry relative="1" as="geometry">
            <Array as="points">
              <mxPoint x="-702" y="1109" />
              <mxPoint x="-513" y="1109" />
              <mxPoint x="232" y="1110" />
            </Array>
          </mxGeometry>
        </mxCell>
        <mxCell id="IWyUqhcyfYSEkEnzNz_I-34" value="Ordem de compra efetivada" style="rounded=1;whiteSpace=wrap;html=1;fontSize=10;" vertex="1" parent="1">
          <mxGeometry x="-744.5" y="821.5" width="85" height="40" as="geometry" />
        </mxCell>
        <mxCell id="IWyUqhcyfYSEkEnzNz_I-51" style="edgeStyle=orthogonalEdgeStyle;rounded=0;orthogonalLoop=1;jettySize=auto;html=1;entryX=0;entryY=0;entryDx=0;entryDy=0;endArrow=open;endFill=0;" edge="1" parent="1" source="IWyUqhcyfYSEkEnzNz_I-36" target="IWyUqhcyfYSEkEnzNz_I-21">
          <mxGeometry relative="1" as="geometry">
            <Array as="points">
              <mxPoint x="-768" y="681" />
              <mxPoint x="-768" y="379" />
              <mxPoint x="-412" y="379" />
              <mxPoint x="-412" y="411" />
            </Array>
          </mxGeometry>
        </mxCell>
        <mxCell id="IWyUqhcyfYSEkEnzNz_I-36" value="Status da Ordem de compra:&amp;nbsp;&lt;div&gt;pendente&lt;/div&gt;" style="rounded=1;whiteSpace=wrap;html=1;fontSize=10;" vertex="1" parent="1">
          <mxGeometry x="-929" y="661.5" width="85" height="40" as="geometry" />
        </mxCell>
        <mxCell id="IWyUqhcyfYSEkEnzNz_I-56" style="edgeStyle=orthogonalEdgeStyle;rounded=0;orthogonalLoop=1;jettySize=auto;html=1;entryX=0.5;entryY=0;entryDx=0;entryDy=0;endArrow=open;endFill=0;" edge="1" parent="1" source="IWyUqhcyfYSEkEnzNz_I-40" target="IWyUqhcyfYSEkEnzNz_I-55">
          <mxGeometry relative="1" as="geometry" />
        </mxCell>
        <mxCell id="IWyUqhcyfYSEkEnzNz_I-40" value="Lista de ordens de compra pendentes&amp;nbsp;" style="rounded=1;whiteSpace=wrap;html=1;fontSize=10;" vertex="1" parent="1">
          <mxGeometry x="-354" y="509" width="92.5" height="44.5" as="geometry" />
        </mxCell>
        <mxCell id="IWyUqhcyfYSEkEnzNz_I-43" value="[Cancelar Odem de Compra]" style="text;html=1;align=center;verticalAlign=middle;resizable=0;points=[];autosize=1;strokeColor=none;fillColor=none;" vertex="1" parent="1">
          <mxGeometry x="-478" y="457.5" width="180" height="30" as="geometry" />
        </mxCell>
        <mxCell id="IWyUqhcyfYSEkEnzNz_I-45" value="" style="edgeStyle=orthogonalEdgeStyle;rounded=0;orthogonalLoop=1;jettySize=auto;html=1;entryX=1;entryY=0.5;entryDx=0;entryDy=0;endArrow=open;endFill=0;" edge="1" parent="1" source="IWyUqhcyfYSEkEnzNz_I-92" target="IWyUqhcyfYSEkEnzNz_I-44">
          <mxGeometry relative="1" as="geometry">
            <mxPoint x="543" y="285" as="sourcePoint" />
            <mxPoint x="240" y="285" as="targetPoint" />
          </mxGeometry>
        </mxCell>
        <mxCell id="IWyUqhcyfYSEkEnzNz_I-48" style="edgeStyle=orthogonalEdgeStyle;rounded=0;orthogonalLoop=1;jettySize=auto;html=1;entryX=0.5;entryY=0;entryDx=0;entryDy=0;endArrow=open;endFill=0;" edge="1" parent="1" source="IWyUqhcyfYSEkEnzNz_I-44" target="IWyUqhcyfYSEkEnzNz_I-21">
          <mxGeometry relative="1" as="geometry" />
        </mxCell>
        <mxCell id="IWyUqhcyfYSEkEnzNz_I-73" style="edgeStyle=orthogonalEdgeStyle;rounded=0;orthogonalLoop=1;jettySize=auto;html=1;entryX=1;entryY=0.5;entryDx=0;entryDy=0;endArrow=open;endFill=0;" edge="1" parent="1" source="IWyUqhcyfYSEkEnzNz_I-44" target="Sk72uiIsyQAN5pC7uQmF-6">
          <mxGeometry relative="1" as="geometry" />
        </mxCell>
        <mxCell id="IWyUqhcyfYSEkEnzNz_I-44" value="&lt;div style=&quot;font-size: 10px;&quot;&gt;Cadastrar&amp;nbsp;&lt;/div&gt;&lt;div style=&quot;font-size: 10px;&quot;&gt;nova ordem de compra?&lt;/div&gt;" style="rhombus;whiteSpace=wrap;html=1;fontSize=10;" vertex="1" parent="1">
          <mxGeometry x="-353.37" y="253" width="91.75" height="63" as="geometry" />
        </mxCell>
        <mxCell id="IWyUqhcyfYSEkEnzNz_I-47" value="[Sim]" style="text;html=1;align=center;verticalAlign=middle;resizable=0;points=[];autosize=1;strokeColor=none;fillColor=none;" vertex="1" parent="1">
          <mxGeometry x="-698.5" y="256.5" width="50" height="30" as="geometry" />
        </mxCell>
        <mxCell id="IWyUqhcyfYSEkEnzNz_I-49" value="[Não]" style="text;html=1;align=center;verticalAlign=middle;resizable=0;points=[];autosize=1;strokeColor=none;fillColor=none;" vertex="1" parent="1">
          <mxGeometry x="-353.37" y="328.5" width="50" height="30" as="geometry" />
        </mxCell>
        <mxCell id="IWyUqhcyfYSEkEnzNz_I-54" style="edgeStyle=orthogonalEdgeStyle;rounded=0;orthogonalLoop=1;jettySize=auto;html=1;entryX=0.5;entryY=0;entryDx=0;entryDy=0;endArrow=open;endFill=0;" edge="1" parent="1" source="IWyUqhcyfYSEkEnzNz_I-52" target="IWyUqhcyfYSEkEnzNz_I-23">
          <mxGeometry relative="1" as="geometry" />
        </mxCell>
        <mxCell id="IWyUqhcyfYSEkEnzNz_I-52" value="Lista de ordens de compra pendentes" style="rounded=1;whiteSpace=wrap;html=1;fontSize=10;" vertex="1" parent="1">
          <mxGeometry x="-747" y="401" width="89" height="45.5" as="geometry" />
        </mxCell>
        <mxCell id="IWyUqhcyfYSEkEnzNz_I-58" style="edgeStyle=orthogonalEdgeStyle;rounded=0;orthogonalLoop=1;jettySize=auto;html=1;entryX=0.5;entryY=0;entryDx=0;entryDy=0;endArrow=open;endFill=0;" edge="1" parent="1" source="IWyUqhcyfYSEkEnzNz_I-55" target="IWyUqhcyfYSEkEnzNz_I-57">
          <mxGeometry relative="1" as="geometry" />
        </mxCell>
        <mxCell id="IWyUqhcyfYSEkEnzNz_I-55" value="Cancelar Ordem&lt;div&gt;de compra&lt;/div&gt;" style="rounded=1;whiteSpace=wrap;html=1;fontSize=10;" vertex="1" parent="1">
          <mxGeometry x="-350.5" y="581" width="85" height="40" as="geometry" />
        </mxCell>
        <mxCell id="IWyUqhcyfYSEkEnzNz_I-60" style="edgeStyle=orthogonalEdgeStyle;rounded=0;orthogonalLoop=1;jettySize=auto;html=1;entryX=1;entryY=0.5;entryDx=0;entryDy=0;endArrow=open;endFill=0;" edge="1" parent="1" source="IWyUqhcyfYSEkEnzNz_I-57" target="IWyUqhcyfYSEkEnzNz_I-59">
          <mxGeometry relative="1" as="geometry" />
        </mxCell>
        <mxCell id="IWyUqhcyfYSEkEnzNz_I-63" style="edgeStyle=orthogonalEdgeStyle;rounded=0;orthogonalLoop=1;jettySize=auto;html=1;entryX=0.5;entryY=0;entryDx=0;entryDy=0;endArrow=open;endFill=0;" edge="1" parent="1" source="IWyUqhcyfYSEkEnzNz_I-57" target="IWyUqhcyfYSEkEnzNz_I-62">
          <mxGeometry relative="1" as="geometry" />
        </mxCell>
        <mxCell id="IWyUqhcyfYSEkEnzNz_I-57" value="APIB3" style="rhombus;whiteSpace=wrap;html=1;" vertex="1" parent="1">
          <mxGeometry x="-346.75" y="669" width="77.5" height="55" as="geometry" />
        </mxCell>
        <mxCell id="IWyUqhcyfYSEkEnzNz_I-89" style="edgeStyle=orthogonalEdgeStyle;rounded=0;orthogonalLoop=1;jettySize=auto;html=1;entryX=0.5;entryY=0;entryDx=0;entryDy=0;endArrow=open;endFill=0;" edge="1" parent="1" source="IWyUqhcyfYSEkEnzNz_I-59" target="Sk72uiIsyQAN5pC7uQmF-10">
          <mxGeometry relative="1" as="geometry">
            <Array as="points">
              <mxPoint x="-512" y="1110" />
              <mxPoint x="232" y="1110" />
            </Array>
          </mxGeometry>
        </mxCell>
        <mxCell id="IWyUqhcyfYSEkEnzNz_I-59" value="Indisponibilidade&lt;div&gt;temporária do&lt;/div&gt;&lt;div&gt;cancelamento&lt;/div&gt;" style="rounded=1;whiteSpace=wrap;html=1;fontSize=10;" vertex="1" parent="1">
          <mxGeometry x="-555" y="676.5" width="85" height="40" as="geometry" />
        </mxCell>
        <mxCell id="IWyUqhcyfYSEkEnzNz_I-61" value="[Não disponível]" style="text;html=1;align=center;verticalAlign=middle;resizable=0;points=[];autosize=1;strokeColor=none;fillColor=none;" vertex="1" parent="1">
          <mxGeometry x="-453" y="669" width="110" height="30" as="geometry" />
        </mxCell>
        <mxCell id="IWyUqhcyfYSEkEnzNz_I-66" style="edgeStyle=orthogonalEdgeStyle;rounded=0;orthogonalLoop=1;jettySize=auto;html=1;entryX=0.5;entryY=0;entryDx=0;entryDy=0;endArrow=open;endFill=0;" edge="1" parent="1" source="IWyUqhcyfYSEkEnzNz_I-62" target="IWyUqhcyfYSEkEnzNz_I-65">
          <mxGeometry relative="1" as="geometry" />
        </mxCell>
        <mxCell id="IWyUqhcyfYSEkEnzNz_I-62" value="Processamento do cancelamento de Ordem de compra" style="rounded=1;whiteSpace=wrap;html=1;fontSize=10;" vertex="1" parent="1">
          <mxGeometry x="-353.5" y="764" width="92" height="58" as="geometry" />
        </mxCell>
        <mxCell id="IWyUqhcyfYSEkEnzNz_I-64" value="[Disponível]" style="text;html=1;align=center;verticalAlign=middle;resizable=0;points=[];autosize=1;strokeColor=none;fillColor=none;" vertex="1" parent="1">
          <mxGeometry x="-318.5" y="724" width="90" height="30" as="geometry" />
        </mxCell>
        <mxCell id="IWyUqhcyfYSEkEnzNz_I-90" style="edgeStyle=orthogonalEdgeStyle;rounded=0;orthogonalLoop=1;jettySize=auto;html=1;entryX=0.5;entryY=0;entryDx=0;entryDy=0;endArrow=open;endFill=0;" edge="1" parent="1" source="IWyUqhcyfYSEkEnzNz_I-65" target="Sk72uiIsyQAN5pC7uQmF-10">
          <mxGeometry relative="1" as="geometry">
            <Array as="points">
              <mxPoint x="-307" y="1110" />
              <mxPoint x="232" y="1110" />
            </Array>
          </mxGeometry>
        </mxCell>
        <mxCell id="IWyUqhcyfYSEkEnzNz_I-65" value="Ordem de compra&lt;div&gt;cancelada&lt;/div&gt;" style="rounded=1;whiteSpace=wrap;html=1;fontSize=10;" vertex="1" parent="1">
          <mxGeometry x="-350" y="849" width="85" height="40" as="geometry" />
        </mxCell>
        <mxCell id="IWyUqhcyfYSEkEnzNz_I-68" value="" style="edgeStyle=orthogonalEdgeStyle;rounded=0;orthogonalLoop=1;jettySize=auto;html=1;entryX=0.5;entryY=0;entryDx=0;entryDy=0;endArrow=open;endFill=0;" edge="1" parent="1" source="IWyUqhcyfYSEkEnzNz_I-23" target="IWyUqhcyfYSEkEnzNz_I-67">
          <mxGeometry relative="1" as="geometry">
            <mxPoint x="-702" y="519" as="sourcePoint" />
            <mxPoint x="-702" y="641" as="targetPoint" />
          </mxGeometry>
        </mxCell>
        <mxCell id="IWyUqhcyfYSEkEnzNz_I-71" style="edgeStyle=orthogonalEdgeStyle;rounded=0;orthogonalLoop=1;jettySize=auto;html=1;entryX=0;entryY=0.5;entryDx=0;entryDy=0;endArrow=open;endFill=0;" edge="1" parent="1" source="IWyUqhcyfYSEkEnzNz_I-67" target="IWyUqhcyfYSEkEnzNz_I-70">
          <mxGeometry relative="1" as="geometry" />
        </mxCell>
        <mxCell id="IWyUqhcyfYSEkEnzNz_I-67" value="APIB3" style="rhombus;whiteSpace=wrap;html=1;" vertex="1" parent="1">
          <mxGeometry x="-740.75" y="559" width="77.5" height="55" as="geometry" />
        </mxCell>
        <mxCell id="IWyUqhcyfYSEkEnzNz_I-69" value="[Disponível]" style="text;html=1;align=center;verticalAlign=middle;resizable=0;points=[];autosize=1;strokeColor=none;fillColor=none;" vertex="1" parent="1">
          <mxGeometry x="-714" y="614" width="90" height="30" as="geometry" />
        </mxCell>
        <mxCell id="IWyUqhcyfYSEkEnzNz_I-88" style="edgeStyle=orthogonalEdgeStyle;rounded=0;orthogonalLoop=1;jettySize=auto;html=1;entryX=0.5;entryY=0;entryDx=0;entryDy=0;endArrow=open;endFill=0;" edge="1" parent="1" source="IWyUqhcyfYSEkEnzNz_I-70" target="Sk72uiIsyQAN5pC7uQmF-10">
          <mxGeometry relative="1" as="geometry">
            <Array as="points">
              <mxPoint x="-506" y="619" />
              <mxPoint x="-588" y="619" />
              <mxPoint x="-588" y="1109" />
              <mxPoint x="-513" y="1109" />
              <mxPoint x="232" y="1110" />
            </Array>
          </mxGeometry>
        </mxCell>
        <mxCell id="IWyUqhcyfYSEkEnzNz_I-70" value="Indisponibilidade&lt;div&gt;temporária do&lt;/div&gt;&lt;div&gt;cancelamento&lt;/div&gt;" style="rounded=1;whiteSpace=wrap;html=1;fontSize=10;" vertex="1" parent="1">
          <mxGeometry x="-549" y="566.5" width="85" height="40" as="geometry" />
        </mxCell>
        <mxCell id="IWyUqhcyfYSEkEnzNz_I-72" value="[Não disponível]" style="text;html=1;align=center;verticalAlign=middle;resizable=0;points=[];autosize=1;strokeColor=none;fillColor=none;" vertex="1" parent="1">
          <mxGeometry x="-663.25" y="561.5" width="110" height="30" as="geometry" />
        </mxCell>
        <mxCell id="IWyUqhcyfYSEkEnzNz_I-75" value="[Compra]" style="text;html=1;align=center;verticalAlign=middle;resizable=0;points=[];autosize=1;strokeColor=none;fillColor=none;" vertex="1" parent="1">
          <mxGeometry x="410" y="256.5" width="70" height="30" as="geometry" />
        </mxCell>
        <mxCell id="IWyUqhcyfYSEkEnzNz_I-81" style="edgeStyle=orthogonalEdgeStyle;rounded=0;orthogonalLoop=1;jettySize=auto;html=1;entryX=0.5;entryY=0;entryDx=0;entryDy=0;endArrow=open;endFill=0;" edge="1" parent="1" source="IWyUqhcyfYSEkEnzNz_I-77" target="IWyUqhcyfYSEkEnzNz_I-80">
          <mxGeometry relative="1" as="geometry" />
        </mxCell>
        <mxCell id="IWyUqhcyfYSEkEnzNz_I-77" value="Lista de ordens de compra&amp;nbsp;" style="rounded=1;whiteSpace=wrap;html=1;fontSize=10;" vertex="1" parent="1">
          <mxGeometry x="-88" y="404.5" width="85" height="40" as="geometry" />
        </mxCell>
        <mxCell id="IWyUqhcyfYSEkEnzNz_I-79" value="[Modificar Ordem de Compra]" style="text;html=1;align=center;verticalAlign=middle;resizable=0;points=[];autosize=1;strokeColor=none;fillColor=none;" vertex="1" parent="1">
          <mxGeometry x="-273" y="401" width="180" height="30" as="geometry" />
        </mxCell>
        <mxCell id="IWyUqhcyfYSEkEnzNz_I-85" style="edgeStyle=orthogonalEdgeStyle;rounded=0;orthogonalLoop=1;jettySize=auto;html=1;entryX=0.5;entryY=0;entryDx=0;entryDy=0;endArrow=open;endFill=0;" edge="1" parent="1" source="IWyUqhcyfYSEkEnzNz_I-80" target="IWyUqhcyfYSEkEnzNz_I-83">
          <mxGeometry relative="1" as="geometry" />
        </mxCell>
        <mxCell id="IWyUqhcyfYSEkEnzNz_I-80" value="Modificar Ordem&lt;div&gt;de Compra&lt;/div&gt;" style="rounded=1;whiteSpace=wrap;html=1;fontSize=10;" vertex="1" parent="1">
          <mxGeometry x="-88" y="499" width="85" height="40" as="geometry" />
        </mxCell>
        <mxCell id="IWyUqhcyfYSEkEnzNz_I-82" style="edgeStyle=orthogonalEdgeStyle;rounded=0;orthogonalLoop=1;jettySize=auto;html=1;entryX=0.5;entryY=0;entryDx=0;entryDy=0;endArrow=open;endFill=0;" edge="1" parent="1" source="IWyUqhcyfYSEkEnzNz_I-83" target="IWyUqhcyfYSEkEnzNz_I-84">
          <mxGeometry relative="1" as="geometry" />
        </mxCell>
        <mxCell id="IWyUqhcyfYSEkEnzNz_I-83" value="APIB3 confirma&amp;nbsp; modificação de ordem de compra" style="rounded=1;whiteSpace=wrap;html=1;fontSize=10;" vertex="1" parent="1">
          <mxGeometry x="-91.5" y="591.5" width="92" height="58" as="geometry" />
        </mxCell>
        <mxCell id="IWyUqhcyfYSEkEnzNz_I-91" style="edgeStyle=orthogonalEdgeStyle;rounded=0;orthogonalLoop=1;jettySize=auto;html=1;entryX=0.5;entryY=0;entryDx=0;entryDy=0;endArrow=open;endFill=0;" edge="1" parent="1" source="IWyUqhcyfYSEkEnzNz_I-84" target="Sk72uiIsyQAN5pC7uQmF-10">
          <mxGeometry relative="1" as="geometry">
            <Array as="points">
              <mxPoint x="-40" y="1110" />
              <mxPoint x="232" y="1110" />
            </Array>
          </mxGeometry>
        </mxCell>
        <mxCell id="IWyUqhcyfYSEkEnzNz_I-84" value="Ordem de compra&lt;div&gt;modificada&lt;/div&gt;" style="rounded=1;whiteSpace=wrap;html=1;fontSize=10;" vertex="1" parent="1">
          <mxGeometry x="-88" y="676.5" width="85" height="40" as="geometry" />
        </mxCell>
        <mxCell id="IWyUqhcyfYSEkEnzNz_I-93" value="" style="edgeStyle=orthogonalEdgeStyle;rounded=0;orthogonalLoop=1;jettySize=auto;html=1;entryX=1;entryY=0.5;entryDx=0;entryDy=0;endArrow=open;endFill=0;" edge="1" parent="1" source="Sk72uiIsyQAN5pC7uQmF-4" target="IWyUqhcyfYSEkEnzNz_I-92">
          <mxGeometry relative="1" as="geometry">
            <mxPoint x="543" y="285" as="sourcePoint" />
            <mxPoint x="-262" y="284" as="targetPoint" />
          </mxGeometry>
        </mxCell>
        <mxCell id="IWyUqhcyfYSEkEnzNz_I-96" style="edgeStyle=orthogonalEdgeStyle;rounded=0;orthogonalLoop=1;jettySize=auto;html=1;entryX=0.5;entryY=0;entryDx=0;entryDy=0;endArrow=open;endFill=0;" edge="1" parent="1" source="IWyUqhcyfYSEkEnzNz_I-92" target="IWyUqhcyfYSEkEnzNz_I-95">
          <mxGeometry relative="1" as="geometry" />
        </mxCell>
        <mxCell id="IWyUqhcyfYSEkEnzNz_I-111" style="edgeStyle=orthogonalEdgeStyle;rounded=0;orthogonalLoop=1;jettySize=auto;html=1;exitX=1;exitY=1;exitDx=0;exitDy=0;entryX=0.5;entryY=0;entryDx=0;entryDy=0;endArrow=open;endFill=0;" edge="1" parent="1" source="IWyUqhcyfYSEkEnzNz_I-92" target="IWyUqhcyfYSEkEnzNz_I-110">
          <mxGeometry relative="1" as="geometry">
            <Array as="points">
              <mxPoint x="249" y="340" />
              <mxPoint x="372" y="340" />
            </Array>
          </mxGeometry>
        </mxCell>
        <mxCell id="IWyUqhcyfYSEkEnzNz_I-92" value="&lt;div style=&quot;font-size: 10px;&quot;&gt;Tipo de ação&lt;/div&gt;" style="rhombus;whiteSpace=wrap;html=1;fontSize=10;" vertex="1" parent="1">
          <mxGeometry x="180" y="253" width="91.75" height="63" as="geometry" />
        </mxCell>
        <mxCell id="IWyUqhcyfYSEkEnzNz_I-94" value="[Verificar Ordem de Compra]" style="text;html=1;align=center;verticalAlign=middle;resizable=0;points=[];autosize=1;strokeColor=none;fillColor=none;" vertex="1" parent="1">
          <mxGeometry x="-135.5" y="260.5" width="180" height="30" as="geometry" />
        </mxCell>
        <mxCell id="IWyUqhcyfYSEkEnzNz_I-99" style="edgeStyle=orthogonalEdgeStyle;rounded=0;orthogonalLoop=1;jettySize=auto;html=1;entryX=0.5;entryY=0;entryDx=0;entryDy=0;endArrow=open;endFill=0;" edge="1" parent="1" source="IWyUqhcyfYSEkEnzNz_I-95" target="IWyUqhcyfYSEkEnzNz_I-98">
          <mxGeometry relative="1" as="geometry" />
        </mxCell>
        <mxCell id="IWyUqhcyfYSEkEnzNz_I-95" value="Lista de ordens de compra&amp;nbsp;" style="rounded=1;whiteSpace=wrap;html=1;fontSize=10;" vertex="1" parent="1">
          <mxGeometry x="183.38" y="377.5" width="85" height="40" as="geometry" />
        </mxCell>
        <mxCell id="IWyUqhcyfYSEkEnzNz_I-97" value="[Consultar status da Ordem de Compra]" style="text;html=1;align=center;verticalAlign=middle;resizable=0;points=[];autosize=1;strokeColor=none;fillColor=none;" vertex="1" parent="1">
          <mxGeometry x="-3" y="336" width="240" height="30" as="geometry" />
        </mxCell>
        <mxCell id="IWyUqhcyfYSEkEnzNz_I-101" style="edgeStyle=orthogonalEdgeStyle;rounded=0;orthogonalLoop=1;jettySize=auto;html=1;entryX=0.5;entryY=0;entryDx=0;entryDy=0;endArrow=open;endFill=0;" edge="1" parent="1" source="IWyUqhcyfYSEkEnzNz_I-98" target="IWyUqhcyfYSEkEnzNz_I-100">
          <mxGeometry relative="1" as="geometry" />
        </mxCell>
        <mxCell id="IWyUqhcyfYSEkEnzNz_I-98" value="Consultar status de Ordem de compra" style="rounded=1;whiteSpace=wrap;html=1;fontSize=10;" vertex="1" parent="1">
          <mxGeometry x="183.37" y="452.5" width="85" height="40" as="geometry" />
        </mxCell>
        <mxCell id="IWyUqhcyfYSEkEnzNz_I-104" style="edgeStyle=orthogonalEdgeStyle;rounded=0;orthogonalLoop=1;jettySize=auto;html=1;entryX=1;entryY=0.5;entryDx=0;entryDy=0;endArrow=open;endFill=0;" edge="1" parent="1" source="IWyUqhcyfYSEkEnzNz_I-100" target="IWyUqhcyfYSEkEnzNz_I-102">
          <mxGeometry relative="1" as="geometry" />
        </mxCell>
        <mxCell id="IWyUqhcyfYSEkEnzNz_I-107" style="edgeStyle=orthogonalEdgeStyle;rounded=0;orthogonalLoop=1;jettySize=auto;html=1;entryX=0.5;entryY=0;entryDx=0;entryDy=0;endArrow=open;endFill=0;" edge="1" parent="1" source="IWyUqhcyfYSEkEnzNz_I-100" target="IWyUqhcyfYSEkEnzNz_I-106">
          <mxGeometry relative="1" as="geometry" />
        </mxCell>
        <mxCell id="IWyUqhcyfYSEkEnzNz_I-100" value="APIB3" style="rhombus;whiteSpace=wrap;html=1;" vertex="1" parent="1">
          <mxGeometry x="187.12" y="521.5" width="77.5" height="55" as="geometry" />
        </mxCell>
        <mxCell id="IWyUqhcyfYSEkEnzNz_I-102" value="Indisponibilidade&lt;div&gt;temporária do&lt;/div&gt;&lt;div&gt;cancelamento&lt;/div&gt;" style="rounded=1;whiteSpace=wrap;html=1;fontSize=10;" vertex="1" parent="1">
          <mxGeometry x="11" y="529" width="85" height="40" as="geometry" />
        </mxCell>
        <mxCell id="IWyUqhcyfYSEkEnzNz_I-105" value="[Não disponível]" style="text;html=1;align=center;verticalAlign=middle;resizable=0;points=[];autosize=1;strokeColor=none;fillColor=none;" vertex="1" parent="1">
          <mxGeometry x="93" y="517" width="110" height="30" as="geometry" />
        </mxCell>
        <mxCell id="IWyUqhcyfYSEkEnzNz_I-109" style="edgeStyle=orthogonalEdgeStyle;rounded=0;orthogonalLoop=1;jettySize=auto;html=1;entryX=0.5;entryY=0;entryDx=0;entryDy=0;endArrow=open;endFill=0;" edge="1" parent="1" source="IWyUqhcyfYSEkEnzNz_I-106" target="Sk72uiIsyQAN5pC7uQmF-10">
          <mxGeometry relative="1" as="geometry">
            <Array as="points">
              <mxPoint x="232" y="770" />
              <mxPoint x="232" y="770" />
            </Array>
          </mxGeometry>
        </mxCell>
        <mxCell id="IWyUqhcyfYSEkEnzNz_I-106" value="Status da Ordem de Compra" style="rounded=1;whiteSpace=wrap;html=1;fontSize=10;" vertex="1" parent="1">
          <mxGeometry x="183.38" y="609.5" width="85" height="40" as="geometry" />
        </mxCell>
        <mxCell id="IWyUqhcyfYSEkEnzNz_I-108" value="[Disponível]" style="text;html=1;align=center;verticalAlign=middle;resizable=0;points=[];autosize=1;strokeColor=none;fillColor=none;" vertex="1" parent="1">
          <mxGeometry x="214" y="572" width="90" height="30" as="geometry" />
        </mxCell>
        <mxCell id="IWyUqhcyfYSEkEnzNz_I-119" style="edgeStyle=orthogonalEdgeStyle;rounded=0;orthogonalLoop=1;jettySize=auto;html=1;entryX=0.5;entryY=0;entryDx=0;entryDy=0;endArrow=open;endFill=0;" edge="1" parent="1" source="IWyUqhcyfYSEkEnzNz_I-110" target="IWyUqhcyfYSEkEnzNz_I-118">
          <mxGeometry relative="1" as="geometry" />
        </mxCell>
        <mxCell id="IWyUqhcyfYSEkEnzNz_I-110" value="Recuperação do&lt;div&gt;histórico de Ordens de Compra&lt;/div&gt;" style="rounded=1;whiteSpace=wrap;html=1;fontSize=10;" vertex="1" parent="1">
          <mxGeometry x="330" y="377.5" width="85" height="52.5" as="geometry" />
        </mxCell>
        <mxCell id="IWyUqhcyfYSEkEnzNz_I-112" value="[Consultar histórico de Ordens de Compra]" style="text;html=1;align=center;verticalAlign=middle;resizable=0;points=[];autosize=1;strokeColor=none;fillColor=none;" vertex="1" parent="1">
          <mxGeometry x="240" y="312.5" width="250" height="30" as="geometry" />
        </mxCell>
        <mxCell id="IWyUqhcyfYSEkEnzNz_I-120" style="edgeStyle=orthogonalEdgeStyle;rounded=0;orthogonalLoop=1;jettySize=auto;html=1;entryX=0.5;entryY=0;entryDx=0;entryDy=0;endArrow=open;endFill=0;" edge="1" parent="1" source="IWyUqhcyfYSEkEnzNz_I-118" target="Sk72uiIsyQAN5pC7uQmF-10">
          <mxGeometry relative="1" as="geometry">
            <Array as="points">
              <mxPoint x="373" y="920" />
              <mxPoint x="232" y="920" />
              <mxPoint x="232" y="1110" />
            </Array>
          </mxGeometry>
        </mxCell>
        <mxCell id="IWyUqhcyfYSEkEnzNz_I-118" value="Consulta por filtros dentro do histórico" style="rounded=1;whiteSpace=wrap;html=1;fontSize=10;" vertex="1" parent="1">
          <mxGeometry x="330" y="473.5" width="85" height="40" as="geometry" />
        </mxCell>
        <mxCell id="IWyUqhcyfYSEkEnzNz_I-223" style="edgeStyle=orthogonalEdgeStyle;rounded=0;orthogonalLoop=1;jettySize=auto;html=1;entryX=0;entryY=0.5;entryDx=0;entryDy=0;endArrow=open;endFill=0;" edge="1" parent="1" source="IWyUqhcyfYSEkEnzNz_I-220" target="IWyUqhcyfYSEkEnzNz_I-222">
          <mxGeometry relative="1" as="geometry" />
        </mxCell>
        <mxCell id="IWyUqhcyfYSEkEnzNz_I-276" style="edgeStyle=orthogonalEdgeStyle;rounded=0;orthogonalLoop=1;jettySize=auto;html=1;entryX=0.5;entryY=0;entryDx=0;entryDy=0;endArrow=open;endFill=0;" edge="1" parent="1" source="IWyUqhcyfYSEkEnzNz_I-220" target="IWyUqhcyfYSEkEnzNz_I-275">
          <mxGeometry relative="1" as="geometry" />
        </mxCell>
        <mxCell id="IWyUqhcyfYSEkEnzNz_I-356" style="edgeStyle=orthogonalEdgeStyle;rounded=0;orthogonalLoop=1;jettySize=auto;html=1;exitX=1;exitY=1;exitDx=0;exitDy=0;entryX=0.5;entryY=0;entryDx=0;entryDy=0;endArrow=open;endFill=0;" edge="1" parent="1" source="IWyUqhcyfYSEkEnzNz_I-220" target="IWyUqhcyfYSEkEnzNz_I-289">
          <mxGeometry relative="1" as="geometry">
            <Array as="points">
              <mxPoint x="818" y="330" />
              <mxPoint x="893" y="330" />
            </Array>
          </mxGeometry>
        </mxCell>
        <mxCell id="IWyUqhcyfYSEkEnzNz_I-220" value="&lt;div style=&quot;font-size: 10px;&quot;&gt;Tipo de ação&lt;/div&gt;" style="rhombus;whiteSpace=wrap;html=1;fontSize=10;" vertex="1" parent="1">
          <mxGeometry x="749" y="252.75" width="91.75" height="63" as="geometry" />
        </mxCell>
        <mxCell id="IWyUqhcyfYSEkEnzNz_I-226" style="edgeStyle=orthogonalEdgeStyle;rounded=0;orthogonalLoop=1;jettySize=auto;html=1;entryX=0;entryY=0.5;entryDx=0;entryDy=0;endArrow=open;endFill=0;" edge="1" parent="1" source="IWyUqhcyfYSEkEnzNz_I-222" target="IWyUqhcyfYSEkEnzNz_I-225">
          <mxGeometry relative="1" as="geometry" />
        </mxCell>
        <mxCell id="IWyUqhcyfYSEkEnzNz_I-300" style="edgeStyle=orthogonalEdgeStyle;rounded=0;orthogonalLoop=1;jettySize=auto;html=1;entryX=0.5;entryY=0;entryDx=0;entryDy=0;endArrow=open;endFill=0;" edge="1" parent="1" source="IWyUqhcyfYSEkEnzNz_I-222" target="IWyUqhcyfYSEkEnzNz_I-298">
          <mxGeometry relative="1" as="geometry" />
        </mxCell>
        <mxCell id="IWyUqhcyfYSEkEnzNz_I-222" value="&lt;div style=&quot;font-size: 10px;&quot;&gt;Cancelar uma nova&lt;/div&gt;&lt;div style=&quot;font-size: 10px;&quot;&gt;ordem de venda?&lt;/div&gt;" style="rhombus;whiteSpace=wrap;html=1;fontSize=10;" vertex="1" parent="1">
          <mxGeometry x="1210" y="245.75" width="111.75" height="77" as="geometry" />
        </mxCell>
        <mxCell id="IWyUqhcyfYSEkEnzNz_I-224" value="[Verificar Ordem de Venda]" style="text;html=1;align=center;verticalAlign=middle;resizable=0;points=[];autosize=1;strokeColor=none;fillColor=none;" vertex="1" parent="1">
          <mxGeometry x="893" y="260" width="170" height="30" as="geometry" />
        </mxCell>
        <mxCell id="IWyUqhcyfYSEkEnzNz_I-255" style="edgeStyle=orthogonalEdgeStyle;rounded=0;orthogonalLoop=1;jettySize=auto;html=1;entryX=0.5;entryY=0;entryDx=0;entryDy=0;endArrow=open;endFill=0;" edge="1" parent="1" source="IWyUqhcyfYSEkEnzNz_I-225" target="IWyUqhcyfYSEkEnzNz_I-250">
          <mxGeometry relative="1" as="geometry" />
        </mxCell>
        <mxCell id="IWyUqhcyfYSEkEnzNz_I-225" value="Parâmetros da&lt;div style=&quot;font-size: 10px;&quot;&gt;ordem de&amp;nbsp;&lt;/div&gt;&lt;div style=&quot;font-size: 10px;&quot;&gt;venda&lt;/div&gt;" style="rounded=1;whiteSpace=wrap;html=1;fontSize=10;" vertex="1" parent="1">
          <mxGeometry x="1710" y="264.5" width="85" height="40" as="geometry" />
        </mxCell>
        <mxCell id="IWyUqhcyfYSEkEnzNz_I-227" value="[Sim]" style="text;html=1;align=center;verticalAlign=middle;resizable=0;points=[];autosize=1;strokeColor=none;fillColor=none;" vertex="1" parent="1">
          <mxGeometry x="1540" y="260" width="50" height="30" as="geometry" />
        </mxCell>
        <mxCell id="IWyUqhcyfYSEkEnzNz_I-229" value="" style="edgeStyle=orthogonalEdgeStyle;rounded=0;orthogonalLoop=1;jettySize=auto;html=1;entryX=0.5;entryY=0;entryDx=0;entryDy=0;endArrow=open;endFill=0;" edge="1" parent="1" source="IWyUqhcyfYSEkEnzNz_I-3" target="IWyUqhcyfYSEkEnzNz_I-228">
          <mxGeometry relative="1" as="geometry">
            <mxPoint x="-886" y="478" as="sourcePoint" />
            <mxPoint x="-886" y="581" as="targetPoint" />
          </mxGeometry>
        </mxCell>
        <mxCell id="IWyUqhcyfYSEkEnzNz_I-228" value="Simular Ordem&amp;nbsp;&lt;div&gt;de Compra&lt;/div&gt;" style="rounded=1;whiteSpace=wrap;html=1;fontSize=10;" vertex="1" parent="1">
          <mxGeometry x="-929" y="513.5" width="85" height="40" as="geometry" />
        </mxCell>
        <mxCell id="IWyUqhcyfYSEkEnzNz_I-257" style="edgeStyle=orthogonalEdgeStyle;rounded=0;orthogonalLoop=1;jettySize=auto;html=1;entryX=0;entryY=0.5;entryDx=0;entryDy=0;endArrow=open;endFill=0;" edge="1" parent="1" source="IWyUqhcyfYSEkEnzNz_I-250" target="IWyUqhcyfYSEkEnzNz_I-256">
          <mxGeometry relative="1" as="geometry" />
        </mxCell>
        <mxCell id="IWyUqhcyfYSEkEnzNz_I-261" style="edgeStyle=orthogonalEdgeStyle;rounded=0;orthogonalLoop=1;jettySize=auto;html=1;entryX=0.5;entryY=0;entryDx=0;entryDy=0;endArrow=open;endFill=0;" edge="1" parent="1" source="IWyUqhcyfYSEkEnzNz_I-250" target="IWyUqhcyfYSEkEnzNz_I-260">
          <mxGeometry relative="1" as="geometry" />
        </mxCell>
        <mxCell id="IWyUqhcyfYSEkEnzNz_I-250" value="Dados da&amp;nbsp;&lt;div style=&quot;font-size: 10px;&quot;&gt;ordem&lt;/div&gt;" style="rhombus;whiteSpace=wrap;html=1;fontSize=10;" vertex="1" parent="1">
          <mxGeometry x="1713.75" y="342" width="77.5" height="55" as="geometry" />
        </mxCell>
        <mxCell id="IWyUqhcyfYSEkEnzNz_I-259" style="edgeStyle=orthogonalEdgeStyle;rounded=0;orthogonalLoop=1;jettySize=auto;html=1;entryX=1;entryY=0.5;entryDx=0;entryDy=0;endArrow=open;endFill=0;" edge="1" parent="1" source="IWyUqhcyfYSEkEnzNz_I-256" target="IWyUqhcyfYSEkEnzNz_I-225">
          <mxGeometry relative="1" as="geometry">
            <Array as="points">
              <mxPoint x="1912" y="284.5" />
            </Array>
          </mxGeometry>
        </mxCell>
        <mxCell id="IWyUqhcyfYSEkEnzNz_I-256" value="Corrigir dados de&amp;nbsp;&lt;div&gt;ordem de venda&lt;/div&gt;" style="rounded=1;whiteSpace=wrap;html=1;fontSize=10;" vertex="1" parent="1">
          <mxGeometry x="1878" y="349.5" width="85" height="40" as="geometry" />
        </mxCell>
        <mxCell id="IWyUqhcyfYSEkEnzNz_I-258" value="[Dados inválidos]" style="text;html=1;align=center;verticalAlign=middle;resizable=0;points=[];autosize=1;strokeColor=none;fillColor=none;" vertex="1" parent="1">
          <mxGeometry x="1768" y="335.5" width="110" height="30" as="geometry" />
        </mxCell>
        <mxCell id="IWyUqhcyfYSEkEnzNz_I-264" style="edgeStyle=orthogonalEdgeStyle;rounded=0;orthogonalLoop=1;jettySize=auto;html=1;entryX=0;entryY=0.5;entryDx=0;entryDy=0;endArrow=open;endFill=0;" edge="1" parent="1" source="IWyUqhcyfYSEkEnzNz_I-260" target="IWyUqhcyfYSEkEnzNz_I-263">
          <mxGeometry relative="1" as="geometry" />
        </mxCell>
        <mxCell id="IWyUqhcyfYSEkEnzNz_I-267" style="edgeStyle=orthogonalEdgeStyle;rounded=0;orthogonalLoop=1;jettySize=auto;html=1;entryX=0.5;entryY=0;entryDx=0;entryDy=0;endArrow=open;endFill=0;" edge="1" parent="1" source="IWyUqhcyfYSEkEnzNz_I-260" target="IWyUqhcyfYSEkEnzNz_I-266">
          <mxGeometry relative="1" as="geometry" />
        </mxCell>
        <mxCell id="IWyUqhcyfYSEkEnzNz_I-260" value="APIB3" style="rhombus;whiteSpace=wrap;html=1;" vertex="1" parent="1">
          <mxGeometry x="1713.75" y="441" width="77.5" height="55" as="geometry" />
        </mxCell>
        <mxCell id="IWyUqhcyfYSEkEnzNz_I-262" value="[Disponível]" style="text;html=1;align=center;verticalAlign=middle;resizable=0;points=[];autosize=1;strokeColor=none;fillColor=none;" vertex="1" parent="1">
          <mxGeometry x="1740" y="396.5" width="90" height="30" as="geometry" />
        </mxCell>
        <mxCell id="IWyUqhcyfYSEkEnzNz_I-383" style="edgeStyle=orthogonalEdgeStyle;rounded=0;orthogonalLoop=1;jettySize=auto;html=1;entryX=0.5;entryY=0;entryDx=0;entryDy=0;endArrow=open;endFill=0;" edge="1" parent="1" source="IWyUqhcyfYSEkEnzNz_I-263" target="Sk72uiIsyQAN5pC7uQmF-10">
          <mxGeometry relative="1" as="geometry">
            <Array as="points">
              <mxPoint x="1920" y="1110" />
              <mxPoint x="232" y="1110" />
            </Array>
          </mxGeometry>
        </mxCell>
        <mxCell id="IWyUqhcyfYSEkEnzNz_I-263" value="Indisponibilidade&lt;div&gt;temporária da&amp;nbsp;&lt;/div&gt;&lt;div&gt;simulação&lt;/div&gt;" style="rounded=1;whiteSpace=wrap;html=1;fontSize=10;" vertex="1" parent="1">
          <mxGeometry x="1878" y="448.5" width="85" height="40" as="geometry" />
        </mxCell>
        <mxCell id="IWyUqhcyfYSEkEnzNz_I-265" value="[Não disponível]" style="text;html=1;align=center;verticalAlign=middle;resizable=0;points=[];autosize=1;strokeColor=none;fillColor=none;" vertex="1" parent="1">
          <mxGeometry x="1770" y="438.5" width="110" height="30" as="geometry" />
        </mxCell>
        <mxCell id="IWyUqhcyfYSEkEnzNz_I-272" style="edgeStyle=orthogonalEdgeStyle;rounded=0;orthogonalLoop=1;jettySize=auto;html=1;entryX=0.5;entryY=0;entryDx=0;entryDy=0;endArrow=open;endFill=0;" edge="1" parent="1" source="IWyUqhcyfYSEkEnzNz_I-266" target="IWyUqhcyfYSEkEnzNz_I-270">
          <mxGeometry relative="1" as="geometry" />
        </mxCell>
        <mxCell id="IWyUqhcyfYSEkEnzNz_I-266" value="Simular Ordem&amp;nbsp;&lt;div&gt;de Venda&lt;/div&gt;" style="rounded=1;whiteSpace=wrap;html=1;fontSize=10;" vertex="1" parent="1">
          <mxGeometry x="1710" y="540.5" width="85" height="40" as="geometry" />
        </mxCell>
        <mxCell id="IWyUqhcyfYSEkEnzNz_I-268" value="[Disponível]" style="text;html=1;align=center;verticalAlign=middle;resizable=0;points=[];autosize=1;strokeColor=none;fillColor=none;" vertex="1" parent="1">
          <mxGeometry x="1743" y="498.5" width="90" height="30" as="geometry" />
        </mxCell>
        <mxCell id="IWyUqhcyfYSEkEnzNz_I-269" style="edgeStyle=orthogonalEdgeStyle;rounded=0;orthogonalLoop=1;jettySize=auto;html=1;entryX=0.5;entryY=0;entryDx=0;entryDy=0;endArrow=open;endFill=0;" edge="1" parent="1" source="IWyUqhcyfYSEkEnzNz_I-270" target="IWyUqhcyfYSEkEnzNz_I-271">
          <mxGeometry relative="1" as="geometry" />
        </mxCell>
        <mxCell id="IWyUqhcyfYSEkEnzNz_I-270" value="Valor estimado" style="rounded=1;whiteSpace=wrap;html=1;fontSize=10;" vertex="1" parent="1">
          <mxGeometry x="1710" y="623.25" width="85" height="40" as="geometry" />
        </mxCell>
        <mxCell id="IWyUqhcyfYSEkEnzNz_I-307" style="edgeStyle=orthogonalEdgeStyle;rounded=0;orthogonalLoop=1;jettySize=auto;html=1;entryX=1;entryY=0;entryDx=0;entryDy=0;endArrow=open;endFill=0;" edge="1" parent="1" source="IWyUqhcyfYSEkEnzNz_I-271" target="IWyUqhcyfYSEkEnzNz_I-298">
          <mxGeometry relative="1" as="geometry">
            <Array as="points">
              <mxPoint x="1700" y="724" />
              <mxPoint x="1700" y="340" />
              <mxPoint x="1320" y="340" />
              <mxPoint x="1320" y="382" />
              <mxPoint x="1300" y="382" />
            </Array>
          </mxGeometry>
        </mxCell>
        <mxCell id="IWyUqhcyfYSEkEnzNz_I-271" value="Status da Ordem de venda:&amp;nbsp;&lt;div&gt;pendente&lt;/div&gt;" style="rounded=1;whiteSpace=wrap;html=1;fontSize=10;" vertex="1" parent="1">
          <mxGeometry x="1710" y="703.75" width="85" height="40" as="geometry" />
        </mxCell>
        <mxCell id="IWyUqhcyfYSEkEnzNz_I-279" style="edgeStyle=orthogonalEdgeStyle;rounded=0;orthogonalLoop=1;jettySize=auto;html=1;entryX=0.5;entryY=0;entryDx=0;entryDy=0;endArrow=open;endFill=0;" edge="1" parent="1" source="IWyUqhcyfYSEkEnzNz_I-275" target="IWyUqhcyfYSEkEnzNz_I-278">
          <mxGeometry relative="1" as="geometry" />
        </mxCell>
        <mxCell id="IWyUqhcyfYSEkEnzNz_I-275" value="Lista de ordens de venda" style="rounded=1;whiteSpace=wrap;html=1;fontSize=10;" vertex="1" parent="1">
          <mxGeometry x="752.38" y="358.25" width="85" height="40" as="geometry" />
        </mxCell>
        <mxCell id="IWyUqhcyfYSEkEnzNz_I-277" value="[Consultar status da Ordem de Venda]" style="text;html=1;align=center;verticalAlign=middle;resizable=0;points=[];autosize=1;strokeColor=none;fillColor=none;" vertex="1" parent="1">
          <mxGeometry x="570" y="316" width="230" height="30" as="geometry" />
        </mxCell>
        <mxCell id="IWyUqhcyfYSEkEnzNz_I-287" style="edgeStyle=orthogonalEdgeStyle;rounded=0;orthogonalLoop=1;jettySize=auto;html=1;entryX=0.5;entryY=0;entryDx=0;entryDy=0;endArrow=open;endFill=0;" edge="1" parent="1" source="IWyUqhcyfYSEkEnzNz_I-278" target="IWyUqhcyfYSEkEnzNz_I-282">
          <mxGeometry relative="1" as="geometry" />
        </mxCell>
        <mxCell id="IWyUqhcyfYSEkEnzNz_I-278" value="Consultar status de Ordem de venda" style="rounded=1;whiteSpace=wrap;html=1;fontSize=10;" vertex="1" parent="1">
          <mxGeometry x="752.38" y="446.25" width="85" height="40" as="geometry" />
        </mxCell>
        <mxCell id="IWyUqhcyfYSEkEnzNz_I-280" style="edgeStyle=orthogonalEdgeStyle;rounded=0;orthogonalLoop=1;jettySize=auto;html=1;entryX=1;entryY=0.5;entryDx=0;entryDy=0;endArrow=open;endFill=0;" edge="1" parent="1" source="IWyUqhcyfYSEkEnzNz_I-282" target="IWyUqhcyfYSEkEnzNz_I-283">
          <mxGeometry relative="1" as="geometry" />
        </mxCell>
        <mxCell id="IWyUqhcyfYSEkEnzNz_I-281" style="edgeStyle=orthogonalEdgeStyle;rounded=0;orthogonalLoop=1;jettySize=auto;html=1;entryX=0.5;entryY=0;entryDx=0;entryDy=0;endArrow=open;endFill=0;" edge="1" parent="1" source="IWyUqhcyfYSEkEnzNz_I-282" target="IWyUqhcyfYSEkEnzNz_I-285">
          <mxGeometry relative="1" as="geometry" />
        </mxCell>
        <mxCell id="IWyUqhcyfYSEkEnzNz_I-282" value="APIB3" style="rhombus;whiteSpace=wrap;html=1;" vertex="1" parent="1">
          <mxGeometry x="756.12" y="521.25" width="77.5" height="55" as="geometry" />
        </mxCell>
        <mxCell id="IWyUqhcyfYSEkEnzNz_I-295" style="edgeStyle=orthogonalEdgeStyle;rounded=0;orthogonalLoop=1;jettySize=auto;html=1;entryX=0.5;entryY=0;entryDx=0;entryDy=0;endArrow=open;endFill=0;" edge="1" parent="1" source="IWyUqhcyfYSEkEnzNz_I-283" target="Sk72uiIsyQAN5pC7uQmF-10">
          <mxGeometry relative="1" as="geometry">
            <Array as="points">
              <mxPoint x="623" y="1110" />
              <mxPoint x="232" y="1110" />
            </Array>
          </mxGeometry>
        </mxCell>
        <mxCell id="IWyUqhcyfYSEkEnzNz_I-283" value="Indisponibilidade&lt;div&gt;temporária do&lt;/div&gt;&lt;div&gt;cancelamento&lt;/div&gt;" style="rounded=1;whiteSpace=wrap;html=1;fontSize=10;" vertex="1" parent="1">
          <mxGeometry x="580" y="528.75" width="85" height="40" as="geometry" />
        </mxCell>
        <mxCell id="IWyUqhcyfYSEkEnzNz_I-284" value="[Não disponível]" style="text;html=1;align=center;verticalAlign=middle;resizable=0;points=[];autosize=1;strokeColor=none;fillColor=none;" vertex="1" parent="1">
          <mxGeometry x="662" y="516.75" width="110" height="30" as="geometry" />
        </mxCell>
        <mxCell id="IWyUqhcyfYSEkEnzNz_I-382" style="edgeStyle=orthogonalEdgeStyle;rounded=0;orthogonalLoop=1;jettySize=auto;html=1;entryX=0.5;entryY=0;entryDx=0;entryDy=0;endArrow=open;endFill=0;" edge="1" parent="1" source="IWyUqhcyfYSEkEnzNz_I-285" target="Sk72uiIsyQAN5pC7uQmF-10">
          <mxGeometry relative="1" as="geometry">
            <Array as="points">
              <mxPoint x="795" y="1110" />
              <mxPoint x="232" y="1110" />
            </Array>
          </mxGeometry>
        </mxCell>
        <mxCell id="IWyUqhcyfYSEkEnzNz_I-285" value="Status da Ordem de Venda" style="rounded=1;whiteSpace=wrap;html=1;fontSize=10;" vertex="1" parent="1">
          <mxGeometry x="752.38" y="609.25" width="85" height="40" as="geometry" />
        </mxCell>
        <mxCell id="IWyUqhcyfYSEkEnzNz_I-286" value="[Disponível]" style="text;html=1;align=center;verticalAlign=middle;resizable=0;points=[];autosize=1;strokeColor=none;fillColor=none;" vertex="1" parent="1">
          <mxGeometry x="783" y="571.75" width="90" height="30" as="geometry" />
        </mxCell>
        <mxCell id="IWyUqhcyfYSEkEnzNz_I-293" style="edgeStyle=orthogonalEdgeStyle;rounded=0;orthogonalLoop=1;jettySize=auto;html=1;entryX=0.5;entryY=0;entryDx=0;entryDy=0;endArrow=open;endFill=0;" edge="1" parent="1" source="IWyUqhcyfYSEkEnzNz_I-289" target="IWyUqhcyfYSEkEnzNz_I-292">
          <mxGeometry relative="1" as="geometry" />
        </mxCell>
        <mxCell id="IWyUqhcyfYSEkEnzNz_I-289" value="Recuperação do&lt;div&gt;histórico de Ordens de Venda&lt;/div&gt;" style="rounded=1;whiteSpace=wrap;html=1;fontSize=10;" vertex="1" parent="1">
          <mxGeometry x="850" y="352" width="85" height="52.5" as="geometry" />
        </mxCell>
        <mxCell id="IWyUqhcyfYSEkEnzNz_I-291" value="[Consultar histórico de Ordens de Venda]" style="text;html=1;align=center;verticalAlign=middle;resizable=0;points=[];autosize=1;strokeColor=none;fillColor=none;" vertex="1" parent="1">
          <mxGeometry x="810" y="302.5" width="240" height="30" as="geometry" />
        </mxCell>
        <mxCell id="IWyUqhcyfYSEkEnzNz_I-297" style="edgeStyle=orthogonalEdgeStyle;rounded=0;orthogonalLoop=1;jettySize=auto;html=1;entryX=0.5;entryY=0;entryDx=0;entryDy=0;endArrow=open;endFill=0;" edge="1" parent="1" source="IWyUqhcyfYSEkEnzNz_I-292" target="Sk72uiIsyQAN5pC7uQmF-10">
          <mxGeometry relative="1" as="geometry">
            <Array as="points">
              <mxPoint x="880" y="469" />
              <mxPoint x="880" y="1110" />
              <mxPoint x="232" y="1110" />
            </Array>
          </mxGeometry>
        </mxCell>
        <mxCell id="IWyUqhcyfYSEkEnzNz_I-292" value="Consulta por filtros dentro do histórico" style="rounded=1;whiteSpace=wrap;html=1;fontSize=10;" vertex="1" parent="1">
          <mxGeometry x="900" y="449" width="85" height="40" as="geometry" />
        </mxCell>
        <mxCell id="IWyUqhcyfYSEkEnzNz_I-306" style="edgeStyle=orthogonalEdgeStyle;rounded=0;orthogonalLoop=1;jettySize=auto;html=1;entryX=0;entryY=0.5;entryDx=0;entryDy=0;endArrow=open;endFill=0;" edge="1" parent="1" source="IWyUqhcyfYSEkEnzNz_I-298" target="IWyUqhcyfYSEkEnzNz_I-303">
          <mxGeometry relative="1" as="geometry" />
        </mxCell>
        <mxCell id="IWyUqhcyfYSEkEnzNz_I-352" style="edgeStyle=orthogonalEdgeStyle;rounded=0;orthogonalLoop=1;jettySize=auto;html=1;entryX=1;entryY=0.5;entryDx=0;entryDy=0;endArrow=open;endFill=0;" edge="1" parent="1" source="IWyUqhcyfYSEkEnzNz_I-298" target="IWyUqhcyfYSEkEnzNz_I-351">
          <mxGeometry relative="1" as="geometry" />
        </mxCell>
        <mxCell id="IWyUqhcyfYSEkEnzNz_I-376" style="edgeStyle=orthogonalEdgeStyle;rounded=0;orthogonalLoop=1;jettySize=auto;html=1;entryX=0.5;entryY=0;entryDx=0;entryDy=0;endArrow=open;endFill=0;" edge="1" parent="1" source="IWyUqhcyfYSEkEnzNz_I-298" target="IWyUqhcyfYSEkEnzNz_I-366">
          <mxGeometry relative="1" as="geometry" />
        </mxCell>
        <mxCell id="IWyUqhcyfYSEkEnzNz_I-298" value="Tipo de&amp;nbsp;&lt;div&gt;ação&lt;/div&gt;" style="rhombus;whiteSpace=wrap;html=1;" vertex="1" parent="1">
          <mxGeometry x="1227.12" y="368" width="77.5" height="55" as="geometry" />
        </mxCell>
        <mxCell id="IWyUqhcyfYSEkEnzNz_I-326" style="edgeStyle=orthogonalEdgeStyle;rounded=0;orthogonalLoop=1;jettySize=auto;html=1;entryX=0.5;entryY=0;entryDx=0;entryDy=0;endArrow=open;endFill=0;" edge="1" parent="1" source="IWyUqhcyfYSEkEnzNz_I-303" target="IWyUqhcyfYSEkEnzNz_I-325">
          <mxGeometry relative="1" as="geometry" />
        </mxCell>
        <mxCell id="IWyUqhcyfYSEkEnzNz_I-303" value="Lista de ordens de venda pendentes" style="rounded=1;whiteSpace=wrap;html=1;fontSize=10;" vertex="1" parent="1">
          <mxGeometry x="1540" y="373.25" width="89" height="45.5" as="geometry" />
        </mxCell>
        <mxCell id="IWyUqhcyfYSEkEnzNz_I-305" value="[Efetivar ordem de venda]" style="text;html=1;align=center;verticalAlign=middle;resizable=0;points=[];autosize=1;strokeColor=none;fillColor=none;" vertex="1" parent="1">
          <mxGeometry x="1375" y="368.25" width="160" height="30" as="geometry" />
        </mxCell>
        <mxCell id="IWyUqhcyfYSEkEnzNz_I-322" value="[Disponível]" style="text;html=1;align=center;verticalAlign=middle;resizable=0;points=[];autosize=1;strokeColor=none;fillColor=none;" vertex="1" parent="1">
          <mxGeometry x="1573" y="619.25" width="90" height="30" as="geometry" />
        </mxCell>
        <mxCell id="IWyUqhcyfYSEkEnzNz_I-324" value="[Não disponível]" style="text;html=1;align=center;verticalAlign=middle;resizable=0;points=[];autosize=1;strokeColor=none;fillColor=none;" vertex="1" parent="1">
          <mxGeometry x="1460" y="550.5" width="110" height="30" as="geometry" />
        </mxCell>
        <mxCell id="IWyUqhcyfYSEkEnzNz_I-346" style="edgeStyle=orthogonalEdgeStyle;rounded=0;orthogonalLoop=1;jettySize=auto;html=1;entryX=0.5;entryY=0;entryDx=0;entryDy=0;endArrow=open;endFill=0;" edge="1" parent="1" source="IWyUqhcyfYSEkEnzNz_I-325" target="IWyUqhcyfYSEkEnzNz_I-345">
          <mxGeometry relative="1" as="geometry" />
        </mxCell>
        <mxCell id="IWyUqhcyfYSEkEnzNz_I-325" value="Confirmar Ordem&lt;div&gt;de venda&lt;/div&gt;" style="rounded=1;whiteSpace=wrap;html=1;fontSize=10;" vertex="1" parent="1">
          <mxGeometry x="1542" y="468.5" width="85" height="40" as="geometry" />
        </mxCell>
        <mxCell id="IWyUqhcyfYSEkEnzNz_I-339" style="edgeStyle=orthogonalEdgeStyle;rounded=0;orthogonalLoop=1;jettySize=auto;html=1;entryX=0.5;entryY=0;entryDx=0;entryDy=0;endArrow=open;endFill=0;" edge="1" parent="1" source="IWyUqhcyfYSEkEnzNz_I-345" target="IWyUqhcyfYSEkEnzNz_I-341">
          <mxGeometry relative="1" as="geometry" />
        </mxCell>
        <mxCell id="IWyUqhcyfYSEkEnzNz_I-340" style="edgeStyle=orthogonalEdgeStyle;rounded=0;orthogonalLoop=1;jettySize=auto;html=1;entryX=0.5;entryY=0;entryDx=0;entryDy=0;endArrow=open;endFill=0;" edge="1" parent="1" source="IWyUqhcyfYSEkEnzNz_I-341" target="IWyUqhcyfYSEkEnzNz_I-343">
          <mxGeometry relative="1" as="geometry" />
        </mxCell>
        <mxCell id="IWyUqhcyfYSEkEnzNz_I-341" value="Dados de efetivação" style="rounded=1;whiteSpace=wrap;html=1;fontSize=10;" vertex="1" parent="1">
          <mxGeometry x="1542" y="661.5" width="85" height="40" as="geometry" />
        </mxCell>
        <mxCell id="IWyUqhcyfYSEkEnzNz_I-342" style="edgeStyle=orthogonalEdgeStyle;rounded=0;orthogonalLoop=1;jettySize=auto;html=1;entryX=0.5;entryY=0;entryDx=0;entryDy=0;endArrow=open;endFill=0;" edge="1" parent="1" source="IWyUqhcyfYSEkEnzNz_I-343" target="IWyUqhcyfYSEkEnzNz_I-344">
          <mxGeometry relative="1" as="geometry" />
        </mxCell>
        <mxCell id="IWyUqhcyfYSEkEnzNz_I-343" value="Processamento da Ordem de venda" style="rounded=1;whiteSpace=wrap;html=1;fontSize=10;" vertex="1" parent="1">
          <mxGeometry x="1540" y="741.5" width="90" height="48" as="geometry" />
        </mxCell>
        <mxCell id="IWyUqhcyfYSEkEnzNz_I-350" style="edgeStyle=orthogonalEdgeStyle;rounded=0;orthogonalLoop=1;jettySize=auto;html=1;entryX=0.5;entryY=0;entryDx=0;entryDy=0;endArrow=open;endFill=0;" edge="1" parent="1" source="IWyUqhcyfYSEkEnzNz_I-344" target="Sk72uiIsyQAN5pC7uQmF-10">
          <mxGeometry relative="1" as="geometry">
            <Array as="points">
              <mxPoint x="1584" y="1110" />
              <mxPoint x="232" y="1110" />
            </Array>
          </mxGeometry>
        </mxCell>
        <mxCell id="IWyUqhcyfYSEkEnzNz_I-344" value="Ordem de venda efetivada" style="rounded=1;whiteSpace=wrap;html=1;fontSize=10;" vertex="1" parent="1">
          <mxGeometry x="1542" y="821.5" width="85" height="40" as="geometry" />
        </mxCell>
        <mxCell id="IWyUqhcyfYSEkEnzNz_I-348" style="edgeStyle=orthogonalEdgeStyle;rounded=0;orthogonalLoop=1;jettySize=auto;html=1;entryX=1;entryY=0.5;entryDx=0;entryDy=0;endArrow=open;endFill=0;" edge="1" parent="1" source="IWyUqhcyfYSEkEnzNz_I-345" target="IWyUqhcyfYSEkEnzNz_I-347">
          <mxGeometry relative="1" as="geometry" />
        </mxCell>
        <mxCell id="IWyUqhcyfYSEkEnzNz_I-345" value="APIB3" style="rhombus;whiteSpace=wrap;html=1;" vertex="1" parent="1">
          <mxGeometry x="1545.75" y="559" width="77.5" height="55" as="geometry" />
        </mxCell>
        <mxCell id="IWyUqhcyfYSEkEnzNz_I-349" style="edgeStyle=orthogonalEdgeStyle;rounded=0;orthogonalLoop=1;jettySize=auto;html=1;entryX=0.5;entryY=0;entryDx=0;entryDy=0;endArrow=open;endFill=0;" edge="1" parent="1" source="IWyUqhcyfYSEkEnzNz_I-347" target="Sk72uiIsyQAN5pC7uQmF-10">
          <mxGeometry relative="1" as="geometry">
            <mxPoint x="230" y="1410" as="targetPoint" />
            <Array as="points">
              <mxPoint x="1430" y="1110" />
              <mxPoint x="232" y="1110" />
            </Array>
          </mxGeometry>
        </mxCell>
        <mxCell id="IWyUqhcyfYSEkEnzNz_I-347" value="Indisponibilidade&lt;div&gt;temporária do&lt;/div&gt;&lt;div&gt;cancelamento&lt;/div&gt;" style="rounded=1;whiteSpace=wrap;html=1;fontSize=10;" vertex="1" parent="1">
          <mxGeometry x="1384.62" y="566.5" width="85" height="40" as="geometry" />
        </mxCell>
        <mxCell id="IWyUqhcyfYSEkEnzNz_I-363" style="edgeStyle=orthogonalEdgeStyle;rounded=0;orthogonalLoop=1;jettySize=auto;html=1;entryX=0.5;entryY=0;entryDx=0;entryDy=0;endArrow=open;endFill=0;" edge="1" parent="1" source="IWyUqhcyfYSEkEnzNz_I-351" target="IWyUqhcyfYSEkEnzNz_I-359">
          <mxGeometry relative="1" as="geometry" />
        </mxCell>
        <mxCell id="IWyUqhcyfYSEkEnzNz_I-351" value="Lista de ordens de venda pendentes" style="rounded=1;whiteSpace=wrap;html=1;fontSize=10;" vertex="1" parent="1">
          <mxGeometry x="1020" y="376" width="85" height="40" as="geometry" />
        </mxCell>
        <mxCell id="IWyUqhcyfYSEkEnzNz_I-353" value="[Modificar&amp;nbsp;&lt;div&gt;Ordem de Venda]&lt;/div&gt;" style="text;html=1;align=center;verticalAlign=middle;resizable=0;points=[];autosize=1;strokeColor=none;fillColor=none;" vertex="1" parent="1">
          <mxGeometry x="1105" y="356.5" width="120" height="40" as="geometry" />
        </mxCell>
        <mxCell id="IWyUqhcyfYSEkEnzNz_I-358" style="edgeStyle=orthogonalEdgeStyle;rounded=0;orthogonalLoop=1;jettySize=auto;html=1;entryX=0.5;entryY=0;entryDx=0;entryDy=0;endArrow=open;endFill=0;" edge="1" parent="1" source="IWyUqhcyfYSEkEnzNz_I-359" target="IWyUqhcyfYSEkEnzNz_I-361">
          <mxGeometry relative="1" as="geometry" />
        </mxCell>
        <mxCell id="IWyUqhcyfYSEkEnzNz_I-359" value="Modificar Ordem&lt;div&gt;de Venda&lt;/div&gt;" style="rounded=1;whiteSpace=wrap;html=1;fontSize=10;" vertex="1" parent="1">
          <mxGeometry x="1019.5" y="456.75" width="85" height="40" as="geometry" />
        </mxCell>
        <mxCell id="IWyUqhcyfYSEkEnzNz_I-360" style="edgeStyle=orthogonalEdgeStyle;rounded=0;orthogonalLoop=1;jettySize=auto;html=1;entryX=0.5;entryY=0;entryDx=0;entryDy=0;endArrow=open;endFill=0;" edge="1" parent="1" source="IWyUqhcyfYSEkEnzNz_I-361" target="IWyUqhcyfYSEkEnzNz_I-362">
          <mxGeometry relative="1" as="geometry" />
        </mxCell>
        <mxCell id="IWyUqhcyfYSEkEnzNz_I-361" value="APIB3 confirma&amp;nbsp; modificação de ordem de venda" style="rounded=1;whiteSpace=wrap;html=1;fontSize=10;" vertex="1" parent="1">
          <mxGeometry x="1016" y="521.5" width="92" height="58" as="geometry" />
        </mxCell>
        <mxCell id="IWyUqhcyfYSEkEnzNz_I-364" style="edgeStyle=orthogonalEdgeStyle;rounded=0;orthogonalLoop=1;jettySize=auto;html=1;entryX=0.5;entryY=0;entryDx=0;entryDy=0;endArrow=open;endFill=0;" edge="1" parent="1" source="IWyUqhcyfYSEkEnzNz_I-362" target="Sk72uiIsyQAN5pC7uQmF-10">
          <mxGeometry relative="1" as="geometry">
            <Array as="points">
              <mxPoint x="940" y="624" />
              <mxPoint x="940" y="1110" />
              <mxPoint x="232" y="1110" />
            </Array>
          </mxGeometry>
        </mxCell>
        <mxCell id="IWyUqhcyfYSEkEnzNz_I-362" value="Ordem de venda&lt;div&gt;modificada&lt;/div&gt;" style="rounded=1;whiteSpace=wrap;html=1;fontSize=10;" vertex="1" parent="1">
          <mxGeometry x="1020" y="604" width="85" height="40" as="geometry" />
        </mxCell>
        <mxCell id="IWyUqhcyfYSEkEnzNz_I-365" style="edgeStyle=orthogonalEdgeStyle;rounded=0;orthogonalLoop=1;jettySize=auto;html=1;entryX=0.5;entryY=0;entryDx=0;entryDy=0;endArrow=open;endFill=0;" edge="1" parent="1" source="IWyUqhcyfYSEkEnzNz_I-366" target="IWyUqhcyfYSEkEnzNz_I-368">
          <mxGeometry relative="1" as="geometry" />
        </mxCell>
        <mxCell id="IWyUqhcyfYSEkEnzNz_I-366" value="Lista de ordens de compra pendentes&amp;nbsp;" style="rounded=1;whiteSpace=wrap;html=1;fontSize=10;" vertex="1" parent="1">
          <mxGeometry x="1219" y="487.5" width="92.5" height="44.5" as="geometry" />
        </mxCell>
        <mxCell id="IWyUqhcyfYSEkEnzNz_I-367" style="edgeStyle=orthogonalEdgeStyle;rounded=0;orthogonalLoop=1;jettySize=auto;html=1;entryX=0.5;entryY=0;entryDx=0;entryDy=0;endArrow=open;endFill=0;" edge="1" parent="1" source="IWyUqhcyfYSEkEnzNz_I-368" target="IWyUqhcyfYSEkEnzNz_I-370">
          <mxGeometry relative="1" as="geometry" />
        </mxCell>
        <mxCell id="IWyUqhcyfYSEkEnzNz_I-368" value="Cancelar Ordem&lt;div&gt;de venda&lt;/div&gt;" style="rounded=1;whiteSpace=wrap;html=1;fontSize=10;" vertex="1" parent="1">
          <mxGeometry x="1222.5" y="559.5" width="85" height="40" as="geometry" />
        </mxCell>
        <mxCell id="IWyUqhcyfYSEkEnzNz_I-369" style="edgeStyle=orthogonalEdgeStyle;rounded=0;orthogonalLoop=1;jettySize=auto;html=1;entryX=0.5;entryY=0;entryDx=0;entryDy=0;endArrow=open;endFill=0;" edge="1" parent="1" source="IWyUqhcyfYSEkEnzNz_I-370" target="IWyUqhcyfYSEkEnzNz_I-373">
          <mxGeometry relative="1" as="geometry" />
        </mxCell>
        <mxCell id="IWyUqhcyfYSEkEnzNz_I-379" style="edgeStyle=orthogonalEdgeStyle;rounded=0;orthogonalLoop=1;jettySize=auto;html=1;entryX=1;entryY=0.5;entryDx=0;entryDy=0;endArrow=open;endFill=0;" edge="1" parent="1" source="IWyUqhcyfYSEkEnzNz_I-370" target="IWyUqhcyfYSEkEnzNz_I-378">
          <mxGeometry relative="1" as="geometry" />
        </mxCell>
        <mxCell id="IWyUqhcyfYSEkEnzNz_I-370" value="APIB3" style="rhombus;whiteSpace=wrap;html=1;" vertex="1" parent="1">
          <mxGeometry x="1226.25" y="647.5" width="77.5" height="55" as="geometry" />
        </mxCell>
        <mxCell id="IWyUqhcyfYSEkEnzNz_I-371" value="[Não disponível]" style="text;html=1;align=center;verticalAlign=middle;resizable=0;points=[];autosize=1;strokeColor=none;fillColor=none;" vertex="1" parent="1">
          <mxGeometry x="1105" y="681.5" width="110" height="30" as="geometry" />
        </mxCell>
        <mxCell id="IWyUqhcyfYSEkEnzNz_I-372" style="edgeStyle=orthogonalEdgeStyle;rounded=0;orthogonalLoop=1;jettySize=auto;html=1;entryX=0.5;entryY=0;entryDx=0;entryDy=0;endArrow=open;endFill=0;" edge="1" parent="1" source="IWyUqhcyfYSEkEnzNz_I-373" target="IWyUqhcyfYSEkEnzNz_I-375">
          <mxGeometry relative="1" as="geometry" />
        </mxCell>
        <mxCell id="IWyUqhcyfYSEkEnzNz_I-373" value="Processamento do cancelamento de Ordem de venda" style="rounded=1;whiteSpace=wrap;html=1;fontSize=10;" vertex="1" parent="1">
          <mxGeometry x="1311.5" y="696" width="92" height="58" as="geometry" />
        </mxCell>
        <mxCell id="IWyUqhcyfYSEkEnzNz_I-374" value="[Disponível]" style="text;html=1;align=center;verticalAlign=middle;resizable=0;points=[];autosize=1;strokeColor=none;fillColor=none;" vertex="1" parent="1">
          <mxGeometry x="1294.62" y="644" width="90" height="30" as="geometry" />
        </mxCell>
        <mxCell id="IWyUqhcyfYSEkEnzNz_I-381" style="edgeStyle=orthogonalEdgeStyle;rounded=0;orthogonalLoop=1;jettySize=auto;html=1;entryX=0.5;entryY=0;entryDx=0;entryDy=0;endArrow=open;endFill=0;" edge="1" parent="1" source="IWyUqhcyfYSEkEnzNz_I-375" target="Sk72uiIsyQAN5pC7uQmF-10">
          <mxGeometry relative="1" as="geometry">
            <Array as="points">
              <mxPoint x="1358" y="1110" />
              <mxPoint x="232" y="1110" />
            </Array>
          </mxGeometry>
        </mxCell>
        <mxCell id="IWyUqhcyfYSEkEnzNz_I-375" value="Ordem de compra&lt;div&gt;cancelada&lt;/div&gt;" style="rounded=1;whiteSpace=wrap;html=1;fontSize=10;" vertex="1" parent="1">
          <mxGeometry x="1315" y="810" width="85" height="40" as="geometry" />
        </mxCell>
        <mxCell id="IWyUqhcyfYSEkEnzNz_I-377" value="[Cancelar Odem de Venda]" style="text;html=1;align=center;verticalAlign=middle;resizable=0;points=[];autosize=1;strokeColor=none;fillColor=none;" vertex="1" parent="1">
          <mxGeometry x="1259.5" y="436" width="170" height="30" as="geometry" />
        </mxCell>
        <mxCell id="IWyUqhcyfYSEkEnzNz_I-380" style="edgeStyle=orthogonalEdgeStyle;rounded=0;orthogonalLoop=1;jettySize=auto;html=1;entryX=0.5;entryY=0;entryDx=0;entryDy=0;endArrow=open;endFill=0;" edge="1" parent="1" source="IWyUqhcyfYSEkEnzNz_I-378" target="Sk72uiIsyQAN5pC7uQmF-10">
          <mxGeometry relative="1" as="geometry">
            <Array as="points">
              <mxPoint x="1078" y="1110" />
              <mxPoint x="232" y="1110" />
            </Array>
          </mxGeometry>
        </mxCell>
        <mxCell id="IWyUqhcyfYSEkEnzNz_I-378" value="Indisponibilidade&lt;div&gt;temporária do&lt;/div&gt;&lt;div&gt;cancelamento&lt;/div&gt;" style="rounded=1;whiteSpace=wrap;html=1;fontSize=10;" vertex="1" parent="1">
          <mxGeometry x="1100" y="719" width="85" height="40" as="geometry" />
        </mxCell>
      </root>
    </mxGraphModel>
  </diagram>
</mxfile>
